<?xml version="1.0" standalone="no"?>
<!DOCTYPE svg PUBLIC "-//W3C//DTD SVG 20010904//EN"
 "http://www.w3.org/TR/2001/REC-SVG-20010904/DTD/svg10.dtd">
<svg version="1.0" xmlns="http://www.w3.org/2000/svg"
 width="512.000000pt" height="512.000000pt" viewBox="0 0 512.000000 512.000000"
 preserveAspectRatio="xMidYMid meet">
<metadata>
Created by potrace 1.14, written by Peter Selinger 2001-2017
</metadata>
<g transform="translate(0.000000,512.000000) scale(0.100000,-0.100000)"
fill="#000000" stroke="none">
<path d="M2378 5115 c-2 -1 -34 -5 -73 -9 -38 -3 -97 -10 -130 -16 -33 -6 -76
-13 -95 -16 -106 -17 -413 -105 -434 -125 -6 -5 -16 -9 -23 -9 -31 0 -241
-103 -388 -191 -235 -140 -505 -374 -660 -573 -16 -21 -34 -44 -40 -50 -84
-96 -246 -369 -323 -546 -60 -140 -130 -349 -146 -440 -2 -14 -7 -36 -10 -50
-44 -189 -65 -558 -44 -780 21 -217 83 -475 165 -685 37 -93 123 -273 161
-335 12 -19 29 -48 38 -65 19 -35 138 -207 156 -227 7 -7 29 -34 48 -58 142
-185 404 -415 633 -556 278 -172 645 -310 936 -350 20 -3 79 -11 131 -18 89
-12 496 -14 560 -2 14 2 45 7 70 10 25 4 92 16 150 27 58 12 115 23 128 25 38
7 320 103 370 125 365 164 645 365 905 649 320 350 554 839 622 1300 3 19 7
44 10 55 19 94 27 460 13 605 -64 636 -356 1212 -839 1656 -173 158 -442 333
-664 430 -44 20 -89 39 -100 44 -86 38 -365 119 -465 134 -19 3 -44 8 -56 10
-12 2 -45 7 -74 11 -29 4 -62 9 -74 12 -23 5 -452 13 -458 8z"/>
</g>
</svg>
